<?xml version="1.0" encoding="UTF-8" standalone="no"?>
<svg width="273px" height="1957px" viewBox="0 0 273 1957" version="1.1" xmlns="http://www.w3.org/2000/svg" xmlns:xlink="http://www.w3.org/1999/xlink">
    <!-- Generator: Sketch 3.6.1 (26313) - http://www.bohemiancoding.com/sketch -->
    <title>Group 3</title>
    <desc>Created with Sketch.</desc>
    <defs></defs>
    <g id="Page-1" stroke="none" stroke-width="1" fill="none" fill-rule="evenodd">
        <g id="Group-3" transform="translate(2.000000, 0.000000)">
            <path d="M-125.202669,1429 L-130.314321,1429 L-130.314321,1434.11165 L-259.314321,1563.11165 L-130.314321,1692.11165 L-130.314321,1697 L-125.425973,1697 L-123.202669,1699.2233 L-120.979364,1697 L524,1697 L524,1429 L-121.202669,1429 L-123.202669,1427 L-125.202669,1429 Z" id="Combined-Shape-Copy-5" stroke="#000000" fill="#D8D8D8" transform="translate(134.000000, 1563.000000) rotate(-90.000000) translate(-134.000000, -1563.000000) "></path>
            <path d="M-125.202669,847 L-130.314321,847 L-130.314321,852.111652 L-259.314321,981.111652 L-130.314321,1110.11165 L-130.314321,1115 L-125.425973,1115 L-123.202669,1117.2233 L-120.979364,1115 L524,1115 L524,847 L-121.202669,847 L-123.202669,845 L-125.202669,847 Z" id="Combined-Shape-Copy-4" stroke="#000000" fill="#D8D8D8" transform="translate(134.000000, 981.000000) rotate(-90.000000) translate(-134.000000, -981.000000) "></path>
            <g id="Group-2">
                <path d="M-125.202669,256 L-130.314321,256 L-130.314321,261.111652 L-259.314321,390.111652 L-130.314321,519.111652 L-130.314321,524 L-125.425973,524 L-123.202669,526.223305 L-120.979364,524 L524,524 L524,256 L-121.202669,256 L-123.202669,254 L-125.202669,256 Z" id="Combined-Shape-Copy-3" stroke="#000000" fill="#D8D8D8" transform="translate(134.000000, 390.000000) rotate(-90.000000) translate(-134.000000, -390.000000) "></path>
                <text id="落" font-family="PingFangTC-Semibold, PingFang TC" font-size="64" font-weight="500" line-spacing="89" fill="#2B2B2B">
                    <tspan x="102" y="166">落</tspan>
                    <tspan x="102" y="255">地</tspan>
                    <tspan x="102" y="344">美</tspan>
                    <tspan x="102" y="433">国</tspan>
                </text>
            </g>
        </g>
    </g>
</svg>